<svg xmlns="http://www.w3.org/2000/svg" width="36" height="36" viewBox="0 0 36 36">
  <g id="Group_139250" data-name="Group 139250" transform="translate(-3103 -3029)">
    <rect id="Rectangle_20382" data-name="Rectangle 20382" width="36" height="36" transform="translate(3103 3029)" fill="none"/>
    <g id="Group_139251" data-name="Group 139251">
      <path id="Path_43418" data-name="Path 43418" d="M578.108,278.1a3.292,3.292,0,0,1-1.2-2.563v-4.379a8.394,8.394,0,0,0-.119-1.406,8.2,8.2,0,0,0-3.293-5.323,7.855,7.855,0,0,0-6.02-1.378,8.334,8.334,0,0,0-6.66,8.375v4.107a3.3,3.3,0,0,1-1.2,2.564,3.43,3.43,0,0,0-1.25,2.665v.344a2.057,2.057,0,0,0,.588,1.45,1.966,1.966,0,0,0,1.417.6h5.368v.566a3.326,3.326,0,0,0,.044.537,3.181,3.181,0,0,0,1.276,2.076,3.042,3.042,0,0,0,1.8.59,3.185,3.185,0,0,0,.551-.048,3.27,3.27,0,0,0,2.584-3.287v-.434h5.366a2.034,2.034,0,0,0,2-2.05v-.339A3.439,3.439,0,0,0,578.108,278.1Zm-7.464,5.5a1.9,1.9,0,0,1-1.482,1.916,1.789,1.789,0,0,1-2.054-1.477l0-.014a1.852,1.852,0,0,1-.025-.308v-.566h3.563Zm7.366-2.5a.667.667,0,0,1-.654.672H560.365a.647.647,0,0,1-.465-.2.677.677,0,0,1-.193-.477v-.341a2.047,2.047,0,0,1,.745-1.589,4.679,4.679,0,0,0,1.71-3.64v-4.116a6.967,6.967,0,0,1,5.553-7.008,6.554,6.554,0,0,1,5,1.15,6.835,6.835,0,0,1,2.741,4.431,7.188,7.188,0,0,1,.1,1.171v4.379a4.674,4.674,0,0,0,1.709,3.639,2.05,2.05,0,0,1,.745,1.591Z" transform="translate(2551.641 2772.073)" fill="#3c51a3"/>
      <rect id="Rectangle_20482" data-name="Rectangle 20482" width="24" height="23.999" transform="translate(3109 3035.001)" fill="none"/>
    </g>
  </g>
</svg>
