<svg xmlns="http://www.w3.org/2000/svg" width="46" height="36" viewBox="0 0 46 36">
  <g id="Logo_CSA" data-name="Logo CSA" transform="translate(0 0.747)" style="mix-blend-mode: normal;isolation: isolate">
    <g id="Layer_1" data-name="Layer 1" transform="translate(0 -0.747)">
      <g id="Group_137477" data-name="Group 137477" transform="translate(4.307 0)">
        <circle id="Ellipse_2897" data-name="Ellipse 2897" cx="3.075" cy="3.075" r="3.075" transform="translate(21.124 0.953) rotate(-8.91)" fill="#0e2de0"/>
        <path id="Path_59478" data-name="Path 59478" d="M31.15,7.929a14.836,14.836,0,0,1-5.231.474,18.3,18.3,0,0,0-5.166.246l2.074-1.863s-3.878-2.443-3.883-2.443a1.452,1.452,0,0,0,.287,1.048l-7.943.574S10.11,7.214,9.993,7.079s.474-1.054.474-1.054l-1.335.568A12.275,12.275,0,0,1,7.375,8.2c-.234,0,1.494-2.507,1.494-2.507L11.147,4.66s9.425-2.747,10.3-2.4a50.515,50.515,0,0,1,9.706,5.67Z" transform="translate(-7.353 -0.486)" fill="#0e2de0"/>
      </g>
      <g id="Group_137478" data-name="Group 137478" transform="translate(15.613 8.661)">
        <path id="Path_59479" data-name="Path 59479" d="M37.007,14.529c-.217-.047-.433-.088-.644-.123a17.838,17.838,0,0,0-2.618-.258,6.224,6.224,0,0,0-4.317,1.259,3.991,3.991,0,0,0-.767.9q2.337-.387,4.651-.884c1.248-.269,2.478-.568,3.7-.89Z" transform="translate(-27.676 -14.147)" fill="#07c2ed"/>
        <path id="Path_59480" data-name="Path 59480" d="M38.864,26.818a6.548,6.548,0,0,0-2.905-1.458c-.246.029-.486.064-.732.1-.322.047-.638.1-.961.158-.533.088-1.06.187-1.587.3-1.142.234-2.284.5-3.421.767-.234.053-.463.105-.7.164s-.439.105-.662.152a4.637,4.637,0,0,0,.375.451,7.054,7.054,0,0,0,3.591,1.7l1.494.334a4.025,4.025,0,0,1,1.558.551.715.715,0,0,1,.234.609.727.727,0,0,1-.381.679,3.124,3.124,0,0,1-1.611.328,8.746,8.746,0,0,1-2.413-.363,13.972,13.972,0,0,1-2.653-1.1l-.9-.48v4.709l.4.146a18.594,18.594,0,0,0,2.97.832,15.977,15.977,0,0,0,2.97.281,7.572,7.572,0,0,0,4.879-1.347,5.094,5.094,0,0,0,1.693-4.159,4.469,4.469,0,0,0-1.242-3.35Z" transform="translate(-27.067 -18.792)" fill="#0e2de0"/>
        <path id="Path_59481" data-name="Path 59481" d="M27.678,19.139c.2-.047.4-.082.6-.129.814-.17,1.628-.328,2.443-.469.328-.059.65-.111.978-.158.961-.152,1.927-.275,2.9-.381q1.1-.114,2.2-.193l.51-.035c.17-.012.34-.018.51-.029.205-.012.41-.018.615-.029s.41-.018.615-.023V15.425l-.457-.123c-.72-.193-1.435-.351-2.126-.469l-.129-.023-.129.035c-1.2.316-2.4.6-3.538.855-1.447.316-2.946.609-4.452.867l-.258.047-.146.223a5.019,5.019,0,0,0-.8,2.454c.211-.047.422-.1.633-.146a.109.109,0,0,0,.041-.012Z" transform="translate(-26.992 -14.421)" fill="#0e2de0"/>
        <path id="Path_59482" data-name="Path 59482" d="M29.171,24.346c1.136-.269,2.279-.533,3.421-.767.527-.105,1.054-.205,1.587-.3.322-.053.638-.111.961-.158.246-.035.486-.064.732-.1q-.448-.123-.949-.228l-1.64-.328A3.7,3.7,0,0,1,31.912,22a.5.5,0,0,1-.2-.445.658.658,0,0,1,.351-.65,3.611,3.611,0,0,1,1.74-.3,8.938,8.938,0,0,1,2.074.264,12.763,12.763,0,0,1,2.3.8l.867.387V19.73c-.205.006-.41.012-.615.023s-.41.018-.615.029c-.17.006-.34.018-.51.029l-.51.035c-.732.053-1.464.111-2.2.193-.966.105-1.933.228-2.9.381l-.978.158c-.82.141-1.634.3-2.443.469-.2.041-.4.082-.6.129a.109.109,0,0,0-.041.012c-.211.047-.422.1-.633.146-.012.17-.023.334-.023.51a4.67,4.67,0,0,0,.838,2.817c.223-.053.439-.1.662-.152s.463-.105.7-.164Z" transform="translate(-26.98 -16.46)" fill="#0e2de0"/>
        <path id="Path_59483" data-name="Path 59483" d="M29.171,24.346c1.136-.269,2.279-.533,3.421-.767.527-.105,1.054-.205,1.587-.3.322-.053.638-.111.961-.158.246-.035.486-.064.732-.1q-.448-.123-.949-.228l-1.64-.328A3.7,3.7,0,0,1,31.912,22a.5.5,0,0,1-.2-.445.658.658,0,0,1,.351-.65,3.611,3.611,0,0,1,1.74-.3,8.938,8.938,0,0,1,2.074.264,12.763,12.763,0,0,1,2.3.8l.867.387V19.73c-.205.006-.41.012-.615.023s-.41.018-.615.029c-.17.006-.34.018-.51.029l-.51.035c-.732.053-1.464.111-2.2.193-.966.105-1.933.228-2.9.381l-.978.158c-.82.141-1.634.3-2.443.469-.2.041-.4.082-.6.129a.109.109,0,0,0-.041.012c-.211.047-.422.1-.633.146-.012.17-.023.334-.023.51a4.67,4.67,0,0,0,.838,2.817c.223-.053.439-.1.662-.152s.463-.105.7-.164Z" transform="translate(-26.98 -16.46)" fill="#fff" style="mix-blend-mode: soft-light;isolation: isolate"/>
      </g>
      <g id="Group_137479" data-name="Group 137479" transform="translate(0 9.123)">
        <path id="Path_59484" data-name="Path 59484" d="M13.648,16.123a10.682,10.682,0,0,0-2.355-.884h0a10.736,10.736,0,0,0-2.554-.3,10.164,10.164,0,0,0-4.276.849A7.554,7.554,0,0,0,2.391,17.2,7.921,7.921,0,0,0,.03,22.689l.621-.053c.205-.018.416-.029.621-.047s.381-.035.568-.059c.75-.1,1.5-.228,2.243-.363l.644-.123c.217-.041.433-.088.65-.135a3.946,3.946,0,0,1,.884-1.816A3.531,3.531,0,0,1,9.05,18.976a6.459,6.459,0,0,1,2,.31,7.518,7.518,0,0,1,1.681.82c.41-.105.826-.211,1.242-.31V16.3l-.334-.17Z" transform="translate(-0.012 -14.94)" fill="#0e2de0"/>
        <path id="Path_59485" data-name="Path 59485" d="M4.382,31.06c-.088,0-.176.012-.264.018q-1.379.088-2.759.141c-.205.006-.41.018-.615.023s-.41.006-.615.012a7.725,7.725,0,0,0,2.3,4.838,8.852,8.852,0,0,0,6.349,2.261A10.5,10.5,0,0,0,13.69,37.17l.334-.17V32.361l-.961.656a7.754,7.754,0,0,1-1.962,1,6.486,6.486,0,0,1-2,.31A3.5,3.5,0,0,1,6.31,33.2a4.152,4.152,0,0,1-.955-2.214c-.205.018-.41.029-.615.041-.117.006-.234.018-.351.023Z" transform="translate(-0.054 -21.589)" fill="#0e2de0"/>
        <path id="Path_59486" data-name="Path 59486" d="M22,23.706l.961.656V23.22c-.416.105-.826.205-1.242.31.094.059.182.111.275.176Z" transform="translate(-8.998 -18.37)" fill="#0e2de0"/>
        <path id="Path_59487" data-name="Path 59487" d="M22,23.706l.961.656V23.22c-.416.105-.826.205-1.242.31.094.059.182.111.275.176Z" transform="translate(-8.998 -18.37)" fill="#fff" style="mix-blend-mode: soft-light;isolation: isolate"/>
        <path id="Path_59488" data-name="Path 59488" d="M4.071,27.084c-.744.141-1.494.264-2.243.363-.187.023-.381.041-.568.059-.205.018-.41.035-.621.047L.018,27.6c-.012.211-.018.422-.018.638A10.04,10.04,0,0,0,.076,29.52c.205,0,.41-.006.615-.012s.41-.012.615-.023q1.379-.053,2.759-.141c.088,0,.176-.012.264-.018.117-.006.234-.018.351-.023.205-.012.41-.029.615-.041a7.022,7.022,0,0,1-.07-1.019,6.363,6.363,0,0,1,.146-1.423c-.217.047-.433.094-.65.135l-.644.123Z" transform="translate(0 -19.861)" fill="#0e2de0"/>
        <path id="Path_59489" data-name="Path 59489" d="M4.071,27.084c-.744.141-1.494.264-2.243.363-.187.023-.381.041-.568.059-.205.018-.41.035-.621.047L.018,27.6c-.012.211-.018.422-.018.638A10.04,10.04,0,0,0,.076,29.52c.205,0,.41-.006.615-.012s.41-.012.615-.023q1.379-.053,2.759-.141c.088,0,.176-.012.264-.018.117-.006.234-.018.351-.023.205-.012.41-.029.615-.041a7.022,7.022,0,0,1-.07-1.019,6.363,6.363,0,0,1,.146-1.423c-.217.047-.433.094-.65.135l-.644.123Z" transform="translate(0 -19.861)" fill="#fff" style="mix-blend-mode: soft-light;isolation: isolate"/>
      </g>
      <g id="Group_137480" data-name="Group 137480" transform="translate(28.539 9.061)">
        <path id="Path_59490" data-name="Path 59490" d="M64.672,28.54l-1.183-3.45L62.3,28.54Z" transform="translate(-54.75 -19.08)" fill="none"/>
        <path id="Path_59491" data-name="Path 59491" d="M63,24.41c-.223-.018-.451-.029-.674-.041s-.451-.029-.674-.041q-1.186-.07-2.372-.123c-.223-.012-.439-.023-.662-.029-.316-.012-.627-.023-.943-.029l-.644-.018c-.773-.018-1.546-.029-2.32-.029h-.656c-.217,0-.439,0-.662.006L49.41,34.866h5.2l.955-2.73h5.16l.943,2.73h5.2L63,24.41Zm-4.856.269,1.183,3.45H56.954l1.189-3.45Z" transform="translate(-49.41 -18.67)" fill="#0e2de0"/>
        <path id="Path_59492" data-name="Path 59492" d="M59.027,17.934c.246.023.492.041.744.07.486.053.966.111,1.447.176.269.035.539.07.808.111.808.117,1.617.246,2.419.4.041.006.088.018.129.023.193.035.387.07.574.111.24.047.474.094.709.146L64.322,14.83H58.863l-1.113,3c.211.018.428.029.638.047s.422.041.633.059Z" transform="translate(-52.865 -14.83)" fill="#0e2de0"/>
        <path id="Path_59493" data-name="Path 59493" d="M57.2,22.367h.34c.773,0,1.546.012,2.32.029.217,0,.428.012.644.018.316.012.627.018.943.029.223.006.439.018.662.029q1.186.053,2.372.123c.223.012.451.029.674.041s.451.029.674.041l-.6-1.6c-.234-.053-.474-.1-.709-.146-.193-.035-.387-.076-.574-.111-.041-.006-.088-.018-.129-.023-.8-.146-1.611-.281-2.419-.4-.269-.041-.539-.076-.808-.111-.48-.064-.966-.123-1.447-.176l-.744-.07c-.211-.018-.422-.041-.633-.059s-.428-.029-.638-.047l-.9,2.431c.223,0,.439,0,.662-.006h.316Z" transform="translate(-52.235 -16.943)" fill="#0e2de0"/>
        <path id="Path_59494" data-name="Path 59494" d="M57.2,22.367h.34c.773,0,1.546.012,2.32.029.217,0,.428.012.644.018.316.012.627.018.943.029.223.006.439.018.662.029q1.186.053,2.372.123c.223.012.451.029.674.041s.451.029.674.041l-.6-1.6c-.234-.053-.474-.1-.709-.146-.193-.035-.387-.076-.574-.111-.041-.006-.088-.018-.129-.023-.8-.146-1.611-.281-2.419-.4-.269-.041-.539-.076-.808-.111-.48-.064-.966-.123-1.447-.176l-.744-.07c-.211-.018-.422-.041-.633-.059s-.428-.029-.638-.047l-.9,2.431c.223,0,.439,0,.662-.006h.316Z" transform="translate(-52.235 -16.943)" fill="#fff" style="mix-blend-mode: soft-light;isolation: isolate"/>
      </g>
      <g id="Group_137481" data-name="Group 137481" transform="translate(3.157 27.355)">
        <path id="Path_59495" data-name="Path 59495" d="M6.6,48.322a1.77,1.77,0,0,0,.129.7,1.484,1.484,0,0,0,.843.826,1.647,1.647,0,0,0,.586.105,1.185,1.185,0,0,0,.433-.076,1.536,1.536,0,0,0,.375-.2,1.927,1.927,0,0,0,.328-.293c.1-.111.2-.228.293-.351l.457.3a2.719,2.719,0,0,1-.826.773,2.721,2.721,0,0,1-.562.246,2.117,2.117,0,0,1-.644.094A3.554,3.554,0,0,1,6.96,50.3a2.494,2.494,0,0,1-.832-.433,1.922,1.922,0,0,1-.738-1.546,1.931,1.931,0,0,1,.187-.855,1.9,1.9,0,0,1,.527-.674,2.567,2.567,0,0,1,.808-.445,3.272,3.272,0,0,1,1.043-.158,2.844,2.844,0,0,1,.7.082,2.3,2.3,0,0,1,.58.228,2.142,2.142,0,0,1,.463.351,2.94,2.94,0,0,1,.363.445L9.6,47.59a2.857,2.857,0,0,0-.3-.346,2.69,2.69,0,0,0-.351-.287,1.745,1.745,0,0,0-.392-.193,1.309,1.309,0,0,0-.428-.07,1.592,1.592,0,0,0-.58.105,1.467,1.467,0,0,0-.486.31,1.429,1.429,0,0,0-.334.51,1.881,1.881,0,0,0-.123.7Z" transform="translate(-5.39 -46.19)" fill="#0e2de0"/>
        <path id="Path_59496" data-name="Path 59496" d="M16.019,48.488v1.945H14.93V46.35h1.089v1.786H17.8V46.35h1.078v4.083H17.8V48.488Z" transform="translate(-9.342 -46.256)" fill="#0e2de0"/>
        <path id="Path_59497" data-name="Path 59497" d="M25.34,46.21l2.079,4.165H26.306l-.556-1.113H24.028l-.58,1.113H22.71l2.161-4.165h.469Zm-1.107,2.671h1.335l-.656-1.318Z" transform="translate(-12.673 -46.198)" fill="#0e2de0"/>
        <path id="Path_59498" data-name="Path 59498" d="M31.81,46.35h1.06L34.4,49.138l1.511-2.788h1.037v4.083H35.869V47.773l-1.447,2.659h-.416l-1.5-2.689v2.689h-.691V46.35Z" transform="translate(-16.502 -46.256)" fill="#0e2de0"/>
        <path id="Path_59499" data-name="Path 59499" d="M42.48,46.346h1.546a3.308,3.308,0,0,1,.7.07,1.979,1.979,0,0,1,.568.217,1.1,1.1,0,0,1,.375.357.9.9,0,0,1,.135.5.937.937,0,0,1-.135.5,1.156,1.156,0,0,1-.357.357,1.673,1.673,0,0,1-.51.217,2.465,2.465,0,0,1-.586.07h-.638v1.781H42.486V46.34Zm1.089,1.927h.357a.77.77,0,0,0,.322-.064.667.667,0,0,0,.228-.17.716.716,0,0,0,.135-.246.958.958,0,0,0,.047-.293.791.791,0,0,0-.059-.322.7.7,0,0,0-.164-.24.681.681,0,0,0-.24-.146.844.844,0,0,0-.3-.053h-.328v1.535Z" transform="translate(-20.978 -46.252)" fill="#0e2de0"/>
        <path id="Path_59500" data-name="Path 59500" d="M49.71,46.35h1.084v4.083H49.71Z" transform="translate(-24.003 -46.256)" fill="#0e2de0"/>
        <path id="Path_59501" data-name="Path 59501" d="M55.77,50.467a3.1,3.1,0,0,1-1-.158,2.474,2.474,0,0,1-.8-.445,2.086,2.086,0,0,1-.533-.685,1.941,1.941,0,0,1-.193-.867,1.849,1.849,0,0,1,.193-.849,2.016,2.016,0,0,1,.533-.662,2.394,2.394,0,0,1,.8-.428,3.37,3.37,0,0,1,2,0,2.514,2.514,0,0,1,.8.433,2.1,2.1,0,0,1,.539.662,1.787,1.787,0,0,1,.193.843,2.109,2.109,0,0,1-.088.615,1.825,1.825,0,0,1-.252.527,2.091,2.091,0,0,1-.392.428,2.277,2.277,0,0,1-.51.322,2.865,2.865,0,0,1-.609.205,3.236,3.236,0,0,1-.685.07Zm0-.346a1.221,1.221,0,0,0,.574-.135,1.272,1.272,0,0,0,.416-.375,1.777,1.777,0,0,0,.252-.574,2.837,2.837,0,0,0,.088-.726,2.637,2.637,0,0,0-.088-.709,1.734,1.734,0,0,0-.252-.556,1.237,1.237,0,0,0-.416-.363,1.343,1.343,0,0,0-1.148,0,1.176,1.176,0,0,0-.416.363,1.678,1.678,0,0,0-.252.556,2.706,2.706,0,0,0-.082.709,3.169,3.169,0,0,0,.082.726,1.776,1.776,0,0,0,.252.574,1.21,1.21,0,0,0,.416.375A1.14,1.14,0,0,0,55.77,50.121Z" transform="translate(-25.514 -46.202)" fill="#0e2de0"/>
        <path id="Path_59502" data-name="Path 59502" d="M63.556,46.35h.7l2.525,2.595V46.35h.679v4.141h-.469l-2.747-2.864v2.806H63.55V46.35Z" transform="translate(-29.886 -46.256)" fill="#0e2de0"/>
        <path id="Path_59503" data-name="Path 59503" d="M73.6,50.429a2.49,2.49,0,0,1-.7-.088,1.707,1.707,0,0,1-.51-.234,1.206,1.206,0,0,1-.334-.357,1.387,1.387,0,0,1-.17-.457h.756a1.021,1.021,0,0,0,.117.287.719.719,0,0,0,.193.228.9.9,0,0,0,.275.152,1.168,1.168,0,0,0,.369.053,1.465,1.465,0,0,0,.275-.029.88.88,0,0,0,.246-.088.569.569,0,0,0,.176-.158.4.4,0,0,0,.064-.24.553.553,0,0,0-.1-.322,1.136,1.136,0,0,0-.269-.258,3.269,3.269,0,0,0-.381-.217c-.141-.064-.287-.135-.433-.2s-.293-.141-.433-.211a2.664,2.664,0,0,1-.381-.246,1.224,1.224,0,0,1-.269-.31.746.746,0,0,1-.1-.4.924.924,0,0,1,.117-.451,1.019,1.019,0,0,1,.334-.357,1.762,1.762,0,0,1,.539-.24,2.7,2.7,0,0,1,.72-.088,2.146,2.146,0,0,1,.6.082,1.745,1.745,0,0,1,.48.234,1.406,1.406,0,0,1,.346.351,1.729,1.729,0,0,1,.217.428h-.685c-.041-.094-.088-.187-.135-.275a1.056,1.056,0,0,0-.193-.234.968.968,0,0,0-.275-.158,1.118,1.118,0,0,0-.387-.059,1.045,1.045,0,0,0-.357.053.681.681,0,0,0-.234.129.524.524,0,0,0-.129.176.466.466,0,0,0,.064.486,1.264,1.264,0,0,0,.275.246,3.027,3.027,0,0,0,.392.217c.146.07.293.141.445.211s.3.146.445.223a2.826,2.826,0,0,1,.392.252,1.122,1.122,0,0,1,.275.3.7.7,0,0,1,.105.381.965.965,0,0,1-.111.463,1.084,1.084,0,0,1-.328.369,1.67,1.67,0,0,1-.545.246,2.9,2.9,0,0,1-.75.088Z" transform="translate(-33.341 -46.194)" fill="#0e2de0"/>
      </g>
      <g id="Group_137482" data-name="Group 137482" transform="translate(2.402 33.464)">
        <path id="Path_59504" data-name="Path 59504" d="M5.107,59.139a1.422,1.422,0,0,1-.41-.053,1.009,1.009,0,0,1-.3-.141.757.757,0,0,1-.2-.211.826.826,0,0,1-.1-.269h.445a.613.613,0,0,0,.07.17.416.416,0,0,0,.111.135.5.5,0,0,0,.164.094.623.623,0,0,0,.217.035.541.541,0,0,0,.164-.018.623.623,0,0,0,.146-.053.307.307,0,0,0,.1-.094.282.282,0,0,0,.041-.141A.327.327,0,0,0,5.5,58.4a.787.787,0,0,0-.158-.152,1.59,1.59,0,0,0-.223-.129c-.082-.041-.17-.076-.258-.117s-.176-.082-.258-.123a1.628,1.628,0,0,1-.223-.146.766.766,0,0,1-.158-.182.45.45,0,0,1-.059-.234.507.507,0,0,1,.07-.264.676.676,0,0,1,.2-.211A1.123,1.123,0,0,1,4.75,56.7a1.582,1.582,0,0,1,.428-.053,1.353,1.353,0,0,1,.357.047.794.794,0,0,1,.281.141.851.851,0,0,1,.205.205,1.024,1.024,0,0,1,.129.252h-.4a1.427,1.427,0,0,0-.082-.164A.507.507,0,0,0,5.553,57a.5.5,0,0,0-.164-.094.669.669,0,0,0-.228-.035.732.732,0,0,0-.211.029.4.4,0,0,0-.141.076.294.294,0,0,0-.1.217.283.283,0,0,0,.064.176.677.677,0,0,0,.164.146,2.111,2.111,0,0,0,.228.129l.264.123c.088.041.176.088.264.129a1.108,1.108,0,0,1,.228.152.679.679,0,0,1,.164.182.412.412,0,0,1,.064.223.634.634,0,0,1-.064.275.617.617,0,0,1-.193.217.962.962,0,0,1-.322.146,1.687,1.687,0,0,1-.445.053Z" transform="translate(-4.1 -56.632)" fill="#0e2de0"/>
        <path id="Path_59505" data-name="Path 59505" d="M8.68,56.709l.662,1.558.668-1.587.674,1.576.65-1.552h.428L10.73,59.152h-.293L9.9,57.892l-.527,1.259H9.078L8.03,56.7h.644Z" transform="translate(-5.728 -56.645)" fill="#0e2de0"/>
        <path id="Path_59506" data-name="Path 59506" d="M15,56.73h.644v2.413H15Z" transform="translate(-8.615 -56.666)" fill="#0e2de0"/>
        <path id="Path_59507" data-name="Path 59507" d="M17.21,56.73h.627l.908,1.646.89-1.646h.615v2.413h-.638v-1.57l-.855,1.57H18.51l-.884-1.587v1.587h-.41V56.73Z" transform="translate(-9.606 -56.666)" fill="#0e2de0"/>
        <path id="Path_59508" data-name="Path 59508" d="M23.52,56.73h.627l.908,1.646.89-1.646h.615v2.413h-.638v-1.57l-.855,1.57H24.82l-.884-1.587v1.587h-.41V56.73Z" transform="translate(-12.257 -56.666)" fill="#0e2de0"/>
        <path id="Path_59509" data-name="Path 59509" d="M29.83,56.73h.644v2.413H29.83Z" transform="translate(-14.899 -56.666)" fill="#0e2de0"/>
        <path id="Path_59510" data-name="Path 59510" d="M32.05,56.73h.41l1.494,1.535V56.73h.4v2.448h-.275L32.46,57.486v1.658h-.41Z" transform="translate(-15.837 -56.666)" fill="#0e2de0"/>
        <path id="Path_59511" data-name="Path 59511" d="M38.665,57.92h1.089v.925a2.359,2.359,0,0,1-.252.111,1.814,1.814,0,0,1-.269.088,2.252,2.252,0,0,1-.31.059,3.587,3.587,0,0,1-.381.023,2.093,2.093,0,0,1-.621-.088,1.615,1.615,0,0,1-.492-.246,1.11,1.11,0,0,1-.322-.381,1.094,1.094,0,0,1-.117-.5,1.2,1.2,0,0,1,.117-.527,1.283,1.283,0,0,1,.322-.41,1.468,1.468,0,0,1,.492-.264,1.917,1.917,0,0,1,.621-.094,1.614,1.614,0,0,1,.381.047,1.569,1.569,0,0,1,.34.129,1.383,1.383,0,0,1,.281.187,1.176,1.176,0,0,1,.205.217l-.264.223a1.425,1.425,0,0,0-.176-.2.993.993,0,0,0-.193-.158,1.057,1.057,0,0,0-.217-.105.872.872,0,0,0-.252-.041,1.023,1.023,0,0,0-.381.07.964.964,0,0,0-.3.193.81.81,0,0,0-.2.31,1.179,1.179,0,0,0-.07.422,1.033,1.033,0,0,0,.076.416.944.944,0,0,0,.211.3.882.882,0,0,0,.31.187,1.154,1.154,0,0,0,.381.064.937.937,0,0,0,.228-.029.609.609,0,0,0,.2-.088v-.638h-.445v-.205Z" transform="translate(-17.913 -56.62)" fill="#0e2de0"/>
        <path id="Path_59512" data-name="Path 59512" d="M44.9,56.64l1.23,2.46h-.656l-.328-.656H44.125l-.346.656H43.34l1.277-2.46h.275Zm-.656,1.581h.791l-.387-.779-.4.779Z" transform="translate(-20.58 -56.628)" fill="#0e2de0"/>
        <path id="Path_59513" data-name="Path 59513" d="M49.2,57.893a1.033,1.033,0,0,0,.076.416.932.932,0,0,0,.205.3.9.9,0,0,0,.293.187,1,1,0,0,0,.346.064.743.743,0,0,0,.258-.041A1.007,1.007,0,0,0,50.6,58.7a1.058,1.058,0,0,0,.193-.17c.059-.064.117-.135.176-.205l.269.182a1.381,1.381,0,0,1-.211.246,2.008,2.008,0,0,1-.275.211,1.229,1.229,0,0,1-.334.146,1.359,1.359,0,0,1-.381.053,2.093,2.093,0,0,1-.621-.088,1.515,1.515,0,0,1-.492-.258,1.114,1.114,0,0,1-.322-.4A1.207,1.207,0,0,1,48.6,57.4a1.2,1.2,0,0,1,.31-.4,1.517,1.517,0,0,1,.48-.264,1.881,1.881,0,0,1,.615-.094,1.844,1.844,0,0,1,.416.047,1.469,1.469,0,0,1,.34.135,1.6,1.6,0,0,1,.275.205,1.851,1.851,0,0,1,.217.264l-.269.176a1.977,1.977,0,0,0-.182-.205,1.372,1.372,0,0,0-.205-.17.861.861,0,0,0-.234-.111.733.733,0,0,0-.252-.041.946.946,0,0,0-.34.064.856.856,0,0,0-.287.182.92.92,0,0,0-.2.3,1.121,1.121,0,0,0-.076.416Z" transform="translate(-22.743 -56.628)" fill="#0e2de0"/>
        <path id="Path_59514" data-name="Path 59514" d="M55.238,56.64l1.23,2.46h-.656l-.328-.656H54.465l-.346.656H53.68l1.277-2.46h.275Zm-.65,1.581h.791l-.387-.779-.4.779Z" transform="translate(-24.923 -56.628)" fill="#0e2de0"/>
        <path id="Path_59515" data-name="Path 59515" d="M59.066,56.726h.949a2.7,2.7,0,0,1,.674.076,1.669,1.669,0,0,1,.527.228,1.092,1.092,0,0,1,.346.369,1.019,1.019,0,0,1,.123.5,1.126,1.126,0,0,1-.105.48,1.1,1.1,0,0,1-.3.392,1.517,1.517,0,0,1-.492.264,2.114,2.114,0,0,1-.668.094H59.06V56.72Zm.644,2.161h.34a1.043,1.043,0,0,0,.357-.064.81.81,0,0,0,.293-.187,1.017,1.017,0,0,0,.2-.3,1.146,1.146,0,0,0,.07-.416.992.992,0,0,0-.07-.375.96.96,0,0,0-.187-.3.811.811,0,0,0-.293-.2.942.942,0,0,0-.369-.07h-.34v1.921Z" transform="translate(-27.181 -56.661)" fill="#0e2de0"/>
        <path id="Path_59516" data-name="Path 59516" d="M66.5,56.726v.205H65.184v.8h1.089v.205H65.184v.955H66.5v.246H64.54V56.72H66.5Z" transform="translate(-29.54 -56.661)" fill="#0e2de0"/>
        <path id="Path_59517" data-name="Path 59517" d="M68.58,56.73h.627l.908,1.646L71,56.73h.615v2.413h-.644v-1.57l-.855,1.57h-.246l-.884-1.587v1.587h-.41V56.73Z" transform="translate(-31.214 -56.666)" fill="#0e2de0"/>
        <path id="Path_59518" data-name="Path 59518" d="M75.039,56.73l.861,1.084.808-1.084h.433L76.117,58.1v1.043h-.644V58.136L74.36,56.73h.674Z" transform="translate(-33.608 -56.666)" fill="#0e2de0"/>
      </g>
    </g>
  </g>
</svg>
