<svg xmlns="http://www.w3.org/2000/svg" width="28" height="28" viewBox="0 0 28 28">
  <g id="Group_138954" data-name="Group 138954" transform="translate(-27 -734)">
    <rect id="Rectangle_40324" data-name="Rectangle 40324" width="28" height="28" transform="translate(27 734)" fill="none"/>
    <g id="shopping-bag" transform="translate(16.641 737)">
      <g id="Group_138915" data-name="Group 138915" transform="translate(21.716)">
        <g id="Group_138914" data-name="Group 138914">
          <path id="Path_201972" data-name="Path 201972" d="M82.357,2.715A3.166,3.166,0,0,0,76.665,1.3a.372.372,0,1,0,.6.439A2.421,2.421,0,0,1,81.619,2.82a.373.373,0,0,0,.368.32.4.4,0,0,0,.053,0A.373.373,0,0,0,82.357,2.715Z" transform="translate(-76.593)" fill="#5069b9" stroke="#5069b9" stroke-width="0.2"/>
        </g>
      </g>
      <g id="Group_138917" data-name="Group 138917" transform="translate(16.103 4.848)">
        <g id="Group_138916" data-name="Group 138916" transform="translate(0)">
          <path id="Path_201973" data-name="Path 201973" d="M38.644,46.415l-1.077-1.862a.356.356,0,0,0-.308-.181H36.227a.373.373,0,0,0,0,.745h.829l.646,1.117H23.178l.646-1.117h.38a.373.373,0,0,0,0-.745h-.583a.356.356,0,0,0-.308.181l-1.077,1.862a.385.385,0,0,0,0,.375.357.357,0,0,0,.312.189H38.336a.357.357,0,0,0,.312-.189A.385.385,0,0,0,38.644,46.415Z" transform="translate(-22.185 -44.372)" fill="#5069b9" stroke="#5069b9" stroke-width="0.2"/>
        </g>
      </g>
      <g id="Group_138919" data-name="Group 138919" transform="translate(24.554 2.087)">
        <g id="Group_138918" data-name="Group 138918">
          <path id="Path_201974" data-name="Path 201974" d="M111.492,20.49a.372.372,0,0,0-.232-.166l-5.077-1.188a.372.372,0,0,0-.447.278l-.383,1.637a.372.372,0,0,0,.725.169l.3-1.274,4.352,1.018-.684,2.924a.372.372,0,0,0,.278.447.377.377,0,0,0,.085.01.372.372,0,0,0,.362-.288l.769-3.286A.371.371,0,0,0,111.492,20.49Z" transform="translate(-105.343 -19.126)" fill="#5069b9" stroke="#5069b9" stroke-width="0.2"/>
        </g>
      </g>
      <g id="Group_138921" data-name="Group 138921" transform="translate(17.556 1.132)">
        <g id="Group_138920" data-name="Group 138920">
          <path id="Path_201975" data-name="Path 201975" d="M42.805,13.573l-.339-2.87a.373.373,0,0,0-.414-.326l-6.229.736a.373.373,0,0,0-.326.414l.566,4.787a.373.373,0,0,0,.369.329l.044,0a.373.373,0,0,0,.326-.414l-.522-4.418,5.49-.649.3,2.5a.372.372,0,0,0,.74-.087Z" transform="translate(-35.494 -10.374)" fill="#5069b9" stroke="#5069b9" stroke-width="0.2"/>
        </g>
      </g>
      <g id="Group_138923" data-name="Group 138923" transform="translate(20.06 3.581)">
        <g id="Group_138922" data-name="Group 138922">
          <path id="Path_201976" data-name="Path 201976" d="M68.471,36.129l-.739-3.074a.372.372,0,0,0-.449-.275l-6,1.443a.373.373,0,0,0-.275.449l.369,1.537a.372.372,0,1,0,.724-.174l-.283-1.175,5.276-1.269.652,2.712a.373.373,0,0,0,.724-.174Z" transform="translate(-60.997 -32.769)" fill="#5069b9" stroke="#5069b9" stroke-width="0.2"/>
        </g>
      </g>
      <g id="Group_138925" data-name="Group 138925" transform="translate(15.359 6.704)">
        <g id="Group_138924" data-name="Group 138924">
          <path id="Path_201977" data-name="Path 201977" d="M32.638,61.795a.366.366,0,0,0-.36-.354H16.439a.366.366,0,0,0-.36.354l-.72,14.55a.381.381,0,0,0,.1.276.355.355,0,0,0,.261.116H33a.356.356,0,0,0,.261-.116.382.382,0,0,0,.1-.276ZM16.1,75.991l.683-13.8H31.936l.683,13.8Z" transform="translate(-15.359 -61.441)" fill="#5069b9" stroke="#5069b9" stroke-width="0.2"/>
        </g>
      </g>
      <g id="Group_138927" data-name="Group 138927" transform="translate(25.928 8.204)">
        <g id="Group_138926" data-name="Group 138926" transform="translate(0)">
          <path id="Path_201978" data-name="Path 201978" d="M117.169,75.093a1.117,1.117,0,1,0,1.117,1.117A1.119,1.119,0,0,0,117.169,75.093Zm0,1.49a.372.372,0,1,1,.372-.372A.373.373,0,0,1,117.169,76.583Z" transform="translate(-116.052 -75.093)" fill="#5069b9" stroke="#5069b9" stroke-width="0.2"/>
        </g>
      </g>
      <g id="Group_138929" data-name="Group 138929" transform="translate(20.554 8.204)">
        <g id="Group_138928" data-name="Group 138928">
          <path id="Path_201979" data-name="Path 201979" d="M65.969,75.093a1.117,1.117,0,1,0,1.117,1.117A1.119,1.119,0,0,0,65.969,75.093Zm0,1.49a.372.372,0,1,1,.372-.372A.373.373,0,0,1,65.969,76.583Z" transform="translate(-64.852 -75.093)" fill="#5069b9" stroke="#5069b9" stroke-width="0.2"/>
        </g>
      </g>
      <g id="Group_138931" data-name="Group 138931" transform="translate(21.193 9.326)">
        <g id="Group_138930" data-name="Group 138930">
          <path id="Path_201980" data-name="Path 201980" d="M77.638,85.333h-.029a.373.373,0,0,0-.372.372.368.368,0,0,0,.029.144v1.9a2.421,2.421,0,1,1-4.842,0V85.706a.372.372,0,0,0-.745,0v2.048a3.166,3.166,0,1,0,6.332,0V85.706A.373.373,0,0,0,77.638,85.333Z" transform="translate(-71.679 -85.333)" fill="#5069b9" stroke="#5069b9" stroke-width="0.2"/>
        </g>
      </g>
    </g>
  </g>
</svg>
