<svg xmlns="http://www.w3.org/2000/svg" width="28.3" height="28" viewBox="0 0 28.3 28">
  <g id="Group_137467" data-name="Group 137467" transform="translate(-26.85 -734)">
    <rect id="Rectangle_40324" data-name="Rectangle 40324" width="28" height="28" transform="translate(27 734)" fill="none"/>
    <g id="admire" transform="translate(20 719)">
      <path id="Path_59464" data-name="Path 59464" d="M42.024,48.564V38.5a.5.5,0,0,0-.5-.5H38.5a.5.5,0,0,0-.5.5V48.564h1.006V39.006h2.012v9.558Z" transform="translate(-15.516 -10.577)" fill="#3c51a3" stroke="#3c51a3" stroke-width="0.3"/>
      <path id="Path_59465" data-name="Path 59465" d="M28.024,52.043V45.5a.5.5,0,0,0-.5-.5H24.5a.5.5,0,0,0-.5.5v6.54h1.006V46.006h2.012v6.037Z" transform="translate(-8.509 -14.056)" fill="#3c51a3" stroke="#3c51a3" stroke-width="0.3"/>
      <path id="Path_59466" data-name="Path 59466" d="M14.024,55.024V51.5a.5.5,0,0,0-.5-.5H10.5a.5.5,0,0,0-.5.5v3.521h1.006V52.006h2.012v3.018Z" transform="translate(-1.491 -17.037)" fill="#3c51a3" stroke="#3c51a3" stroke-width="0.3"/>
      <path id="Path_59467" data-name="Path 59467" d="M56.024,44.588V30.5a.5.5,0,0,0-.5-.5H52.5a.5.5,0,0,0-.5.5V44.588h1.006V31.006h2.012V44.588Z" transform="translate(-22.533 -6.601)" fill="#3c51a3" stroke="#3c51a3" stroke-width="0.3"/>
      <path id="Path_59468" data-name="Path 59468" d="M7,61H35v1.006H7Z" transform="translate(0 -22.007)" fill="#3c51a3" stroke="#3c51a3" stroke-width="0.3"/>
      <path id="Path_59469" data-name="Path 59469" d="M11,32.085A69.426,69.426,0,0,0,33.4,19.911l-.4,1.4.959.282.869-2.948a.506.506,0,0,0-.086-.451A.5.5,0,0,0,34.327,18l-3.042.206.07,1.006,1.5-.1A68.5,68.5,0,0,1,10.7,31.1Z" transform="translate(-1.839 0)" fill="#3c51a3" stroke="#3c51a3" stroke-width="0.3"/>
    </g>
  </g>
</svg>
