<svg xmlns="http://www.w3.org/2000/svg" width="28" height="28" viewBox="0 0 28 28">
  <g id="Group_139246" data-name="Group 139246" transform="translate(-0.334 -0.333)">
    <rect id="Rectangle_40324" data-name="Rectangle 40324" width="28" height="28" transform="translate(0.334 0.333)" fill="none"/>
    <g id="swim-cap" transform="translate(2.333 4.333)">
      <path id="Path_59519" data-name="Path 59519" d="M21.976,34.725A1.93,1.93,0,0,0,23.4,34.9a35.171,35.171,0,0,1,8.924-1.1,35.176,35.176,0,0,1,8.923,1.1,1.961,1.961,0,0,0,.5.066,1.835,1.835,0,0,0,.912-.237,1.211,1.211,0,0,0,.66-1.031c-.01-4.682-4.655-8.528-10.537-8.725A12.724,12.724,0,0,0,24.709,27.4a8,8,0,0,0-3.382,6.323A1.17,1.17,0,0,0,21.976,34.725Zm13.836-8.553c3.966,1.161,6.6,4.163,6.611,7.524a.517.517,0,0,1-.284.447.8.8,0,0,1-.6.072,34.108,34.108,0,0,0-5.725-.984Zm-6.067-.226a12.622,12.622,0,0,1,2.578-.265c.143,0,.286,0,.43.007a12.515,12.515,0,0,1,2.156.258v7.215c-.852-.056-1.715-.086-2.583-.086s-1.729.03-2.583.086Zm-4.408,1.972a10.708,10.708,0,0,1,3.5-1.746v7.058a34.075,34.075,0,0,0-5.726.984.817.817,0,0,1-.612-.074.492.492,0,0,1-.273-.43,7.288,7.288,0,0,1,3.106-5.794Z" transform="translate(-20.327 -24.962)" fill="#3c51a3" stroke="#3c51a3" stroke-width="0.3"/>
      <path id="Path_59520" data-name="Path 59520" d="M37.695,77.862H37a6.1,6.1,0,0,0-4.234-1.588,3.509,3.509,0,0,0-3.336,1.682H26.882a3.507,3.507,0,0,0-3.334-1.682,6.094,6.094,0,0,0-4.234,1.588h-.661a1.413,1.413,0,1,0,0,2.824h.662a6.1,6.1,0,0,0,4.234,1.588A3.408,3.408,0,0,0,27.014,80.3a4.6,4.6,0,0,1,2.283,0,3.409,3.409,0,0,0,3.465,1.977A6.094,6.094,0,0,0,37,80.686h.7a1.413,1.413,0,1,0,0-2.824ZM18.812,79.9h-.158a.656.656,0,0,1-.607-.387.605.605,0,0,1,.145-.683.667.667,0,0,1,.463-.183h.159a1.752,1.752,0,0,0,0,1.254Zm7.481-.026C26,80.9,25,81.49,23.549,81.49a5.176,5.176,0,0,1-3.686-1.4.4.4,0,0,0-.058-.072,1.223,1.223,0,0,1-.287-.742,1.254,1.254,0,0,1,.311-.779,5.124,5.124,0,0,1,3.719-1.438,2.639,2.639,0,0,1,2.682,1.43,2.1,2.1,0,0,1,.144.785A2.21,2.21,0,0,1,26.293,79.875Zm2.827-.422a5.4,5.4,0,0,0-1.929,0c0-.059.006-.118.006-.178a3.035,3.035,0,0,0-.047-.534h2.011a3.016,3.016,0,0,0-.047.534C29.114,79.335,29.116,79.394,29.12,79.453Zm7.363.6a5.124,5.124,0,0,1-3.722,1.439c-1.454,0-2.454-.588-2.744-1.615a2.2,2.2,0,0,1-.082-.6,2.105,2.105,0,0,1,.145-.789,2.639,2.639,0,0,1,2.68-1.427,5.163,5.163,0,0,1,3.694,1.408.4.4,0,0,0,.046.058,1.118,1.118,0,0,1-.018,1.525Zm1.673-.333a.66.66,0,0,1-.462.184H37.5a1.748,1.748,0,0,0,0-1.254h.2a.644.644,0,0,1,.658.626.6.6,0,0,1-.2.444Z" transform="translate(-16.175 -62.274)" fill="#3c51a3" stroke="#3c51a3" stroke-width="0.3"/>
    </g>
  </g>
</svg>
