<svg xmlns="http://www.w3.org/2000/svg" width="28" height="28" viewBox="0 0 28 28">
  <g id="Group_137470" data-name="Group 137470" transform="translate(-27 -734)">
    <rect id="Rectangle_40324" data-name="Rectangle 40324" width="28" height="28" transform="translate(27 734)" fill="none"/>
    <path id="menu" d="M3,6c0-.71.6-1,1.333-1H25.667a1.287,1.287,0,1,1,0,2.571H4.333A1.578,1.578,0,0,1,3,6Zm0,8a1.31,1.31,0,0,1,1.333-1.286H25.667a1.287,1.287,0,1,1,0,2.571H4.333A1.31,1.31,0,0,1,3,14Zm0,7.714a1.31,1.31,0,0,1,1.333-1.286H25.667a1.287,1.287,0,1,1,0,2.571H4.333A1.31,1.31,0,0,1,3,21.714Z" transform="translate(26 734)" fill="#3c51a3" fill-rule="evenodd"/>
  </g>
</svg>
