<svg xmlns="http://www.w3.org/2000/svg" width="80" height="80" viewBox="0 0 80 80">
  <g id="Group_139025" data-name="Group 139025" transform="translate(-148 -288)">
    <circle id="Ellipse_2899" data-name="Ellipse 2899" cx="40" cy="40" r="40" transform="translate(148 288)" fill="#ebedf5"/>
    <g id="no_bell_alarm" transform="translate(163 303)">
      <path id="Path_202038" data-name="Path 202038" d="M31.4,39.4H9.115a5.2,5.2,0,0,1,1.112-2.165l1.408-1.408A8.234,8.234,0,0,0,13.8,30.6V21.8a1.6,1.6,0,0,0-3.2,0v8.8a5.156,5.156,0,0,1-1.227,2.965L7.965,34.972A8.234,8.234,0,0,0,5.8,40.2V41a1.6,1.6,0,0,0,1.6,1.6H20.2v1.6a4.8,4.8,0,0,0,9.6,0V42.6h1.6a1.6,1.6,0,0,0,0-3.2Zm-4.8,4.8a1.6,1.6,0,1,1-3.2,0V42.6h3.2ZM48.53,46.267,44,41.735A1.562,1.562,0,0,0,44.2,41v-.8a8.234,8.234,0,0,0-2.165-5.227l-1.408-1.408A5.156,5.156,0,0,1,39.4,30.6v-12A14.417,14.417,0,0,0,26.6,4.294V2.6a1.6,1.6,0,0,0-3.2,0V4.317a14.394,14.394,0,0,0-10.43,6.39L3.731,1.469A1.6,1.6,0,0,0,1.469,3.731l44.8,44.8a1.6,1.6,0,0,0,2.262-2.262ZM25,7.4A11.212,11.212,0,0,1,36.2,18.6v12a8.234,8.234,0,0,0,2.165,5.227l1.408,1.408a3.79,3.79,0,0,1,.614.889L15.307,13.045A11.187,11.187,0,0,1,25,7.4Z" fill="#3c51a3"/>
    </g>
  </g>
</svg>
